REM MD5 d98e20a8d7eeacfd3c5d78bbe6d38561
FILE "Sankyo Fever - Jikki Simulation (Japan).bin" BINARY
  TRACK 01 MODE2/2352
    INDEX 01 00:00:00
  TRACK 02 AUDIO
    INDEX 00 39:25:25
    INDEX 01 39:27:25
  TRACK 03 AUDIO
    INDEX 00 40:27:23
    INDEX 01 40:29:23
  TRACK 04 AUDIO
    INDEX 00 41:29:24
    INDEX 01 41:31:24
  TRACK 05 AUDIO
    INDEX 00 47:31:25
    INDEX 01 47:33:25
  TRACK 06 AUDIO
    INDEX 00 53:33:27
    INDEX 01 53:35:27
REM LEADOUT 59:35:28
